<svg aria-hidden="true" style="position: absolute; width: 0; height: 0; overflow: hidden;" version="1.1" xmlns="http://www.w3.org/2000/svg" xmlns:xlink="http://www.w3.org/1999/xlink">
<defs>
<symbol id="icon-cross-close" viewBox="0 0 32 32">
<path d="M32 3.692l-3.692-3.692-12.308 12.308-12.308-12.308-3.692 3.692 12.308 12.308-12.308 12.308 3.692 3.692 12.308-12.308 12.308 12.308 3.692-3.692-12.308-12.308z"></path>
</symbol>
<symbol id="icon-delete-button" viewBox="0 0 32 32">
<path d="M25.283 3.834h-4.981c-0.248-2.155-2.082-3.834-4.302-3.834s-4.053 1.679-4.302 3.834h-4.981c-2.016 0-3.656 1.64-3.656 3.656v0.188c0 1.54 0.959 2.859 2.31 3.396v17.271c0 2.016 1.64 3.656 3.656 3.656h13.945c2.016 0 3.656-1.64 3.656-3.656v-17.27c1.351-0.537 2.31-1.856 2.31-3.396v-0.188c0-2.016-1.64-3.656-3.656-3.656zM16 1.734c1.263 0 2.317 0.905 2.55 2.1h-5.099c0.233-1.195 1.287-2.1 2.549-2.1zM24.894 28.344c0 1.060-0.862 1.922-1.922 1.922h-13.945c-1.059 0-1.922-0.862-1.922-1.922v-17.011h17.789v17.011zM27.205 7.677c0 1.060-0.862 1.922-1.922 1.922h-18.566c-1.059 0-1.922-0.862-1.922-1.922v-0.188c0-1.060 0.862-1.922 1.922-1.922h18.566c1.059 0 1.922 0.862 1.922 1.922v0.188z"></path>
<path d="M11.352 28.049c0.479 0 0.867-0.388 0.867-0.867v-9.761c0-0.479-0.388-0.867-0.867-0.867s-0.867 0.388-0.867 0.867v9.761c-0 0.479 0.388 0.867 0.867 0.867z"></path>
<path d="M16 28.049c0.479 0 0.867-0.388 0.867-0.867v-9.761c0-0.479-0.388-0.867-0.867-0.867s-0.867 0.388-0.867 0.867v9.761c0 0.479 0.388 0.867 0.867 0.867z"></path>
<path d="M20.648 28.049c0.479 0 0.867-0.388 0.867-0.867v-9.761c0-0.479-0.388-0.867-0.867-0.867s-0.867 0.388-0.867 0.867v9.761c-0 0.479 0.388 0.867 0.867 0.867z"></path>
</symbol>
<symbol id="icon-paper-clip" viewBox="0 0 32 32">
<path d="M28.891 4.76c-1.014-1.014-2.193-1.802-3.513-2.338-1.273-0.515-2.617-0.781-3.998-0.781-1.378 0-2.725 0.259-3.998 0.771-1.317 0.532-2.499 1.31-3.513 2.317l-11.405 11.382c-0.802 0.795-1.421 1.721-1.846 2.759-0.408 1-0.616 2.058-0.616 3.146 0 1.081 0.205 2.136 0.61 3.136 0.418 1.034 1.034 1.96 1.829 2.759s1.725 1.415 2.759 1.836c1 0.408 2.058 0.613 3.143 0.613s2.142-0.205 3.143-0.61c1.037-0.421 1.967-1.037 2.765-1.832l9.064-9.027c0.583-0.579 1.031-1.256 1.337-2.011 0.296-0.728 0.445-1.499 0.445-2.287 0-1.624-0.633-3.139-1.782-4.278-1.145-1.152-2.668-1.789-4.288-1.795-1.624-0.003-3.149 0.627-4.298 1.775l-5.645 5.649c-0.286 0.286-0.441 0.664-0.441 1.064s0.155 0.781 0.441 1.064l0.024 0.024c0.586 0.589 1.543 0.589 2.132 0.003l5.659-5.642c1.182-1.172 3.102-1.179 4.285-0.013 0.569 0.566 0.879 1.324 0.879 2.136 0 0.819-0.317 1.587-0.893 2.159l-9.061 9.027c-0.017 0.017-0.030 0.030-0.040 0.051-1 0.973-2.321 1.506-3.722 1.499-1.411-0.007-2.735-0.556-3.725-1.549-0.495-0.505-0.879-1.095-1.145-1.752-0.256-0.637-0.384-1.31-0.384-1.998 0-1.408 0.542-2.725 1.529-3.715 0.013-0.010 0.024-0.020 0.037-0.030l11.382-11.379c0.010-0.010 0.020-0.024 0.030-0.037 0.721-0.707 1.56-1.26 2.493-1.634 0.909-0.364 1.866-0.546 2.85-0.546s1.944 0.189 2.85 0.552c0.94 0.381 1.782 0.936 2.503 1.654 0.721 0.721 1.277 1.563 1.657 2.503 0.367 0.906 0.552 1.866 0.552 2.85 0 0.987-0.185 1.95-0.556 2.863-0.381 0.943-0.943 1.792-1.667 2.52l-7.865 7.842c-0.286 0.286-0.445 0.664-0.445 1.068s0.158 0.781 0.441 1.064l0.017 0.017c0.586 0.586 1.543 0.586 2.129 0l7.859-7.838c1.014-1.014 1.802-2.196 2.338-3.513 0.519-1.273 0.778-2.617 0.778-3.998 0-1.378-0.263-2.722-0.778-3.992-0.532-1.317-1.317-2.496-2.331-3.507z"></path>
</symbol>
<symbol id="icon-photo-focus" viewBox="0 0 32 32">
<path d="M30.667 5.333c0-2.209-1.791-4-4-4h-5.333c-0.736 0-1.333 0.597-1.333 1.333s0.597 1.333 1.333 1.333h5.333c0.736 0 1.333 0.597 1.333 1.333v5.333c0 0.736 0.597 1.333 1.333 1.333s1.333-0.597 1.333-1.333v-5.333z"></path>
<path d="M30.667 21.333c0-0.736-0.597-1.333-1.333-1.333s-1.333 0.597-1.333 1.333v5.333c0 0.736-0.597 1.333-1.333 1.333h-5.333c-0.736 0-1.333 0.597-1.333 1.333s0.597 1.333 1.333 1.333h5.333c2.209 0 4-1.791 4-4v-5.333z"></path>
<path d="M10.667 28h-5.333c-0.736 0-1.333-0.597-1.333-1.333v-5.333c0-0.736-0.597-1.333-1.333-1.333s-1.333 0.597-1.333 1.333v5.333c0 2.209 1.791 4 4 4h5.333c0.736 0 1.333-0.597 1.333-1.333s-0.597-1.333-1.333-1.333z"></path>
<path d="M1.333 10.667c0 0.736 0.597 1.333 1.333 1.333s1.333-0.597 1.333-1.333v-5.333c0-0.736 0.597-1.333 1.333-1.333h5.333c0.736 0 1.333-0.597 1.333-1.333s-0.597-1.333-1.333-1.333h-5.333c-2.209 0-4 1.791-4 4v5.333z"></path>
<path d="M14.667 12c0-0.736 0.597-1.333 1.333-1.333s1.333 0.597 1.333 1.333v2.667h2.667c0.736 0 1.333 0.597 1.333 1.333s-0.597 1.333-1.333 1.333h-2.667v2.667c0 0.736-0.597 1.333-1.333 1.333s-1.333-0.597-1.333-1.333v-2.667h-2.667c-0.736 0-1.333-0.597-1.333-1.333s0.597-1.333 1.333-1.333h2.667v-2.667z"></path>
</symbol>
<symbol id="icon-right-arrow" viewBox="0 0 32 32">
<path d="M32 15.738c0-0.89-0.34-1.726-0.97-2.355l-9.228-9.232c-0.695-0.696-1.823-0.696-2.517 0-0.696 0.696-0.695 1.828 0 2.524l7.527 7.524h-25.044c-0.984 0.001-1.768 0.807-1.768 1.792 0 0.002 0 0.018 0 0.020 0 0.984 0.784 1.796 1.768 1.796h25.045l-7.526 7.52c-0.696 0.696-0.696 1.825 0 2.521 0.695 0.697 1.823 0.696 2.519-0.001l9.224-9.233c0.63-0.628 0.97-1.466 0.97-2.356 0-0.088 0-0.434 0-0.521z"></path>
</symbol>
<symbol id="icon-send-message" viewBox="0 0 32 32">
<path d="M3.699 0.277h22.196c2.042 0 3.699 1.657 3.699 3.699v12.331c0 0.386-0.076 0.751-0.185 1.101l-2.535-2.259c-0.556-0.564-1.675-0.816-2.562-0.455l-4.553-4.66 8.602-6.706-13.564 7.315-13.564-7.315 8.603 6.706-7.115 7.283 8.677-6.196 3.398 2.212 3.401-2.213 5.508 3.935c-0.556 0.451-0.894 1.137-0.894 1.888v1.286c-1.4 0.207-3.049 0.697-4.566 1.777h-14.547c-2.042 0-3.699-1.657-3.699-3.699v-12.33c0-2.042 1.657-3.699 3.699-3.699z"></path>
<path d="M24.662 16.944v3.001c-3.979 0-9.248 1.929-9.248 11.777 1.741-6.284 4.086-6.767 9.248-6.767v3.049c0 0.236 0.129 0.448 0.346 0.539 0.073 0.030 0.149 0.044 0.224 0.044 0.152 0 0.301-0.059 0.412-0.171l6.185-5.554c0.227-0.227 0.227-0.597 0-0.824l-6.185-5.506c-0.166-0.166-0.419-0.217-0.636-0.127s-0.346 0.301-0.346 0.538z"></path>
</symbol>
<symbol id="icon-triangle" viewBox="0 0 32 32">
<path d="M16 2.5c-1.501 0.001-2.818 0.79-3.56 1.974l-0.010 0.018 1.28 0.784-1.284-0.776-11.362 18.766c-0.355 0.597-0.565 1.317-0.565 2.086 0 1.522 0.823 2.851 2.048 3.568l0.020 0.011c0.628 0.366 1.34 0.562 2.068 0.57h22.732c1.523-0.019 2.849-0.846 3.571-2.070l0.011-0.020c0.347-0.592 0.552-1.303 0.552-2.062 0-0.767-0.209-1.486-0.574-2.101l0.011 0.019-11.366-18.774c-0.745-1.203-2.058-1.992-3.555-1.992-0.005 0-0.011 0-0.016 0h0.001z"></path>
</symbol>
<symbol id="icon-menu" viewBox="0 0 32 32">
<path d="M2 6h28v6h-28zM2 14h28v6h-28zM2 22h28v6h-28z"></path>
</symbol>
<symbol id="icon-single-check" viewBox="0 0 32 32">
<path d="M17.733 14.933c-4.8 4.8-5.867 5.333-7.733 3.733-3.333-2.8-4.133-0.267-0.933 2.933l2.933 2.933 6.667-6.533c6.4-6.267 7.867-8.667 5.6-8.667-0.533 0-3.467 2.533-6.533 5.6z"></path>
</symbol>
<symbol id="icon-double-check" viewBox="0 0 32 32">
<path d="M13.733 14.933c-4.8 4.8-5.867 5.333-7.733 3.733-3.333-2.8-4.133-0.267-0.933 2.933l2.933 2.933 6.667-6.533c6.4-6.267 7.867-8.667 5.6-8.667-0.533 0-3.467 2.533-6.533 5.6z"></path>
<path d="M22 14.667c-2.8 2.933-6 5.333-6.933 5.333-2.133 0-2.267 2.133-0.267 3.467 1.467 0.8 14.533-10.933 14.533-13.067 0-2.267-2.267-0.933-7.333 4.267z"></path>
</symbol>
<symbol id="icon-pencil" viewBox="0 0 32 32">
<path d="M27 0c2.761 0 5 2.239 5 5 0 1.126-0.372 2.164-1 3l-2 2-7-7 2-2c0.836-0.628 1.874-1 3-1zM2 23l-2 9 9-2 18.5-18.5-7-7-18.5 18.5zM22.362 11.362l-14 14-1.724-1.724 14-14 1.724 1.724z"></path>
</symbol>
<symbol id="icon-emoticon" viewBox="0 0 32 32">
<path d="M9.067 3.467c-4 2.133-7.733 8.133-7.733 12.533 0 7.067 7.6 14.667 14.667 14.667s14.667-7.6 14.667-14.667c0-4.533-3.733-10.4-8-12.667-4.8-2.533-8.933-2.533-13.6 0.133zM24.133 7.867c5.2 5.333 5.2 10.933 0 16.267-5.333 5.2-10.933 5.2-16.267 0-2.667-2.667-3.867-5.2-3.867-8.133 0-5.733 6.267-12 12-12 2.933 0 5.467 1.2 8.133 3.867z"></path>
<path d="M8 12c0 1.733 0.933 2.667 2.667 2.667s2.667-0.933 2.667-2.667c0-1.733-0.933-2.667-2.667-2.667s-2.667 0.933-2.667 2.667z"></path>
<path d="M18.667 12c0 1.733 0.933 2.667 2.667 2.667s2.667-0.933 2.667-2.667c0-1.733-0.933-2.667-2.667-2.667s-2.667 0.933-2.667 2.667z"></path>
<path d="M9.333 19.867c0 2.133 4.133 5.467 6.667 5.467s6.667-3.333 6.667-5.467c0-2-2.267-1.333-3.2 0.8-0.4 1.067-2 2-3.467 2s-3.067-0.933-3.467-2c-0.933-2.133-3.2-2.8-3.2-0.8z"></path>
</symbol>
<symbol id="icon-copy" viewBox="0 0 32 32">
<path d="M12.16 1.728c0 1.024 0.32 2.24 0.64 2.752 0.448 0.704 0.64 0.448 0.64-1.152v-2.048h9.6v7.68h7.68v16.64h-4.8c-2.752 0-4.8 0.256-4.8 0.64s2.24 0.64 5.44 0.64h5.44v-18.944l-8.064-7.936h-11.776v1.728zM27.2 5.12l2.496 2.56h-5.376v-2.56c0-1.408 0.064-2.56 0.192-2.56s1.344 1.152 2.688 2.56z"></path>
<path d="M0 18.56v13.44h19.84v-18.944l-8.064-7.936h-11.776v13.44zM10.88 10.24v3.84h7.68v16.64h-17.28v-24.32h9.6v3.84zM15.040 10.24l2.496 2.56h-5.376v-2.56c0-1.408 0.064-2.56 0.192-2.56s1.344 1.152 2.688 2.56z"></path>
</symbol>
<symbol id="icon-search" viewBox="0 0 32 32">
<path d="M13.44 1.92c-6.015 0-10.88 4.865-10.88 10.88s4.865 10.88 10.88 10.88c2.147 0 4.135-0.63 5.82-1.7l7.86 7.86 2.72-2.72-7.76-7.74c1.395-1.83 2.24-4.098 2.24-6.58 0-6.015-4.865-10.88-10.88-10.88zM13.44 4.48c4.607 0 8.32 3.713 8.32 8.32s-3.712 8.32-8.32 8.32c-4.607 0-8.32-3.712-8.32-8.32s3.713-8.32 8.32-8.32z"></path>
</symbol>
</defs>
</svg>
